<svg xmlns="http://www.w3.org/2000/svg" viewBox="0 0 24 24" fill="currentColor">
  <path d="M12.186 24h-.007c-3.581-.024-6.334-1.205-8.184-3.509C2.35 18.44 1.5 15.586 1.5 12.068V12c.013-5.392 3.302-9.825 7.777-11.352a11.44 11.44 0 0 1 3.63-.648c.36 0 .72.018 1.079.06c1.875.209 3.68.88 5.186 1.936c.771.539 1.832.348 2.371-.422a1.705 1.705 0 0 0-.422-2.371A12.89 12.89 0 0 0 12.9 0c-.365 0-.73.018-1.096.054C6.485.598 2.262 4.795 1.715 10.047A24.23 24.23 0 0 0 1.5 12v.068c0 4.01.96 7.305 2.778 9.582c2.257 2.835 5.524 4.323 9.595 4.35h.007c2.044 0 4.037-.421 5.797-1.228a1.7 1.7 0 0 0 .862-2.248a1.702 1.702 0 0 0-2.248-.862c-1.445.662-3.121.996-4.777.996z"/>
  <path d="M23.28 11.42c-.688-3.355-2.393-5.964-5.073-7.757a1.705 1.705 0 0 0-2.371.423a1.705 1.705 0 0 0 .422 2.371c2.142 1.422 3.457 3.455 4.025 6.196c.566 2.726.235 5.847-.936 8.779c-.855 2.133-2.083 3.825-3.64 5.02c-1.557 1.195-3.3 1.795-5.183 1.795h-.007c-1.88-.026-3.624-.626-5.181-1.821c-1.557-1.195-2.785-2.887-3.64-5.02c-.193-.482-.714-.75-1.208-.75a1.22 1.22 0 0 0-1.208 1.691c1.044 2.606 2.535 4.674 4.437 6.148c1.902 1.474 4.114 2.246 6.574 2.276h.007c2.46 0 4.672-.772 6.574-2.246c1.902-1.474 3.393-3.542 4.437-6.148c1.389-3.472 1.777-7.18 1.098-11.06z"/>
</svg> 